<svg version="1.2" xmlns="http://www.w3.org/2000/svg" viewBox="85 0 2000 2000" width="2000" height="2000">
	<title>AdobeStock_1021956265</title>
	<style>
		.s0 { fill: #01394d } 
		.s1 { fill: #fef0dc } 
	</style>
	<g id="Layer 1">
		<path id="&lt;Path&gt;" class="s0" d="m2085 0v2000h-2000v-2000z"/>
		<g id="&lt;Group&gt;">
			<g id="&lt;Group&gt;">
				<path id="&lt;Compound Path&gt;" class="s1" d="m861.4 1361.8h-176.7l-145.5-496.3q-30.4-102.4-56.7-153.1-36.2-69.2-71.5-69.2v-5.2h298.4v5.2q-36.2 0-36.2 46.5 0 18.6 5.3 44.5 5.4 25.8 182.9 627.6zm327.1 0h-176.7l-145.5-496.3q-37-122-55-160.3-31.3-62-65-62v-5.2h298.4v5.2q-39.5 0-39.5 56.8 0 38.3 16.5 94.1zm23-124l-3.3-10.4q14-89.9 14-198.5 0-135.4-22.2-228.5-28.8-117.9-88.8-157.2v-5.1h106.9q73.1 0 110.9 26.9 42.8 31 42.8 102.3 0 60-35.4 162.3-13.1 38.3-124.9 308.2z"/>
			</g>
			<g id="&lt;Group&gt;">
				<path id="&lt;Path&gt;" class="s1" d="m1646.8 722.7q-50.5-43.2-116.4-63.3-66-20.1-136-20.1v10.3q29.9 0 56.1 23.7 26.3 23.7 46.9 69.5 20.6 45.9 32.5 113.4 11.8 67.4 11.8 154 0 87.6-11.8 151.4-11.9 63.9-32.5 105.6-20.6 41.8-46.9 62.4-26.2 20.6-56.1 20.6v10.3q70 0 136-20.1 65.9-20.1 116.4-63.4 50.5-43.3 80.9-111.8 30.4-68.5 30.4-165.3 0-96.9-30.4-165.4-30.4-68.5-80.9-111.8z"/>
			</g>
		</g>
	</g>
</svg>